<?xml version="1.0" encoding="UTF-8" standalone="no"?>
<!DOCTYPE svg PUBLIC "-//W3C//DTD SVG 1.1//EN" "http://www.w3.org/Graphics/SVG/1.1/DTD/svg11.dtd">
<svg xmlns="http://www.w3.org/2000/svg" version="1.1" viewBox="0.00 0.00 2104.00 658.00">
<path fill="#ffffff" d="
  M 189.01 71.04
  L 192.25 53.32
  Q 192.35 52.75 192.93 52.75
  L 206.17 52.75
  Q 206.85 52.75 206.73 53.42
  L 201.81 81.16
  Q 201.63 82.15 200.69 82.49
  C 189.06 86.79 158.95 91.86 154.89 73.82
  Q 153.97 69.74 155.42 61.80
  Q 157.88 48.26 160.38 34.13
  C 164.50 10.83 192.44 13.92 209.25 18.49
  Q 209.86 18.65 209.70 19.27
  L 206.57 31.28
  Q 206.40 31.90 205.78 31.75
  Q 196.05 29.43 186.22 29.32
  C 178.27 29.24 175.80 33.41 174.61 40.50
  Q 172.48 53.20 170.63 63.34
  Q 168.94 72.66 178.26 72.73
  Q 183.17 72.77 188.31 71.75
  Q 188.90 71.64 189.01 71.04
  Z"
/>
<path fill="#ffffff" d="
  M 486.37 66.63
  C 483.38 84.05 467.15 87.54 452.17 86.33
  C 443.01 85.59 434.11 80.47 432.94 70.49
  Q 432.56 67.21 433.35 63.03
  Q 435.81 49.92 437.89 37.28
  C 439.65 26.58 445.13 19.12 455.96 16.62
  C 468.57 13.70 487.97 14.72 491.56 30.63
  Q 492.33 34.04 490.79 42.13
  Q 488.60 53.70 486.37 66.63
  Z
  M 452.99 39.18
  C 451.73 47.70 449.95 56.18 448.62 64.64
  Q 447.52 71.67 454.73 72.58
  C 461.85 73.48 469.89 72.35 471.38 63.99
  Q 473.70 50.97 476.14 36.96
  C 476.76 33.43 474.83 30.49 471.39 29.63
  C 463.31 27.60 454.40 29.66 452.99 39.18
  Z"
/>
<path fill="#ffffff" d="
  M 239.08 64.54
  L 235.57 84.90
  Q 235.46 85.50 234.85 85.50
  L 220.64 85.50
  Q 220.01 85.50 220.12 84.88
  L 232.08 16.78
  Q 232.17 16.25 232.71 16.25
  Q 245.33 16.23 257.63 16.27
  C 268.70 16.31 282.34 19.31 280.63 33.84
  Q 280.07 38.57 278.97 44.70
  C 277.52 52.82 274.49 58.81 266.41 61.58
  Q 265.82 61.79 266.12 62.33
  L 278.70 85.09
  A 0.27 0.27 0.0 0 1 278.46 85.49
  L 262.05 85.50
  Q 261.53 85.50 261.27 85.04
  L 249.90 64.82
  A 1.61 1.61 0.0 0 0 248.50 64.00
  L 239.72 64.00
  Q 239.17 64.00 239.08 64.54
  Z
  M 245.10 30.51
  L 241.67 50.18
  A 0.30 0.30 0.0 0 0 241.97 50.53
  Q 248.14 50.42 254.95 50.56
  C 259.53 50.66 262.59 48.89 263.54 44.24
  Q 264.42 39.93 264.92 36.20
  Q 265.62 30.89 260.74 30.31
  Q 255.72 29.72 245.63 30.05
  Q 245.18 30.06 245.10 30.51
  Z"
/>
<path fill="#ffffff" d="
  M 327.40 71.72
  C 331.27 70.26 332.52 66.70 333.17 62.98
  Q 337.18 40.14 341.30 16.82
  Q 341.41 16.25 341.99 16.25
  L 356.48 16.26
  A 0.34 0.33 5.6 0 1 356.81 16.66
  Q 353.08 36.77 349.73 57.21
  Q 347.63 69.98 345.61 74.15
  Q 341.33 83.00 330.08 85.45
  C 318.77 87.92 299.41 87.38 296.15 72.77
  Q 295.34 69.14 296.37 63.39
  Q 300.72 38.98 304.61 16.79
  Q 304.71 16.25 305.25 16.25
  L 319.45 16.25
  Q 320.13 16.25 320.02 16.92
  Q 315.72 41.11 311.60 64.62
  Q 310.40 71.45 317.06 72.53
  Q 322.79 73.46 327.40 71.72
  Z"
/>
<path fill="#ffffff" d="
  M 382.64 65.06
  L 379.14 84.81
  Q 379.02 85.50 378.32 85.50
  L 363.97 85.50
  Q 363.57 85.50 363.64 85.10
  L 375.63 16.87
  Q 375.72 16.32 376.28 16.31
  Q 395.92 15.93 407.21 16.60
  C 416.31 17.14 425.05 22.61 424.04 32.86
  Q 423.10 42.23 420.81 50.62
  C 417.84 61.45 408.29 64.36 398.28 64.47
  Q 391.08 64.55 383.34 64.47
  Q 382.74 64.47 382.64 65.06
  Z
  M 385.23 50.72
  Q 385.17 51.04 385.50 51.03
  Q 391.08 50.90 397.68 51.07
  C 402.56 51.19 405.74 49.77 406.74 44.59
  Q 407.75 39.34 408.15 35.15
  C 408.55 31.03 404.40 29.90 401.10 29.96
  Q 395.24 30.07 389.43 29.95
  Q 388.86 29.94 388.76 30.51
  L 385.23 50.72
  Z"
/>
<path fill="#ffffff" d="
  M 480.08 270.75
  L 606.80 270.75
  A 0.47 0.47 0.0 0 1 607.26 271.30
  L 591.11 361.82
  A 0.82 0.82 0.0 0 1 590.30 362.50
  L 463.68 362.50
  Q 463.10 362.50 463.00 363.07
  L 454.14 412.28
  Q 454.06 412.75 454.54 412.75
  L 591.79 412.75
  Q 592.46 412.75 592.35 413.41
  L 576.94 504.46
  Q 576.85 504.98 576.33 504.98
  Q 475.50 505.03 362.95 504.98
  C 348.88 504.98 339.31 491.45 341.65 478.11
  Q 371.68 307.25 401.07 139.95
  Q 401.10 139.75 401.31 139.75
  L 640.73 139.75
  A 0.20 0.20 0.0 0 1 640.92 139.99
  L 624.77 231.30
  Q 624.65 232.00 623.94 232.00
  L 486.56 232.00
  Q 486.11 232.00 486.04 232.44
  L 479.52 270.08
  Q 479.40 270.75 480.08 270.75
  Z"
/>
<path fill="#ffffff" d="
  M 751.32 281.00
  L 880.39 281.00
  A 0.35 0.35 0.0 0 1 880.74 281.41
  L 864.57 372.09
  A 0.80 0.80 0.0 0 1 863.78 372.75
  L 735.18 372.75
  Q 734.60 372.75 734.50 373.32
  L 711.80 504.47
  Q 711.71 505.02 711.15 505.02
  Q 674.85 504.95 637.74 505.04
  C 626.18 505.07 616.26 496.99 614.87 485.35
  Q 614.46 481.95 615.29 477.23
  Q 645.53 304.86 674.54 140.17
  Q 674.61 139.75 675.04 139.75
  L 915.79 139.75
  Q 916.47 139.75 916.35 140.42
  L 900.23 231.55
  A 0.55 0.54 -84.9 0 1 899.70 232.00
  L 760.02 232.00
  A 0.59 0.58 -84.6 0 0 759.45 232.48
  L 750.96 280.56
  Q 750.88 281.00 751.32 281.00
  Z"
/>
<path fill="#ffffff" d="
  M 1003.32 412.75
  L 1140.64 412.75
  A 0.34 0.34 0.0 0 1 1140.98 413.15
  L 1125.52 504.52
  Q 1125.44 505.00 1124.96 505.00
  Q 1021.72 504.99 912.03 505.02
  C 899.79 505.02 889.80 494.74 889.79 482.69
  Q 889.79 480.67 891.34 471.83
  Q 920.49 305.95 949.62 140.12
  A 0.45 0.44 4.5 0 1 950.06 139.75
  L 1189.27 139.75
  A 0.25 0.24 -85.9 0 1 1189.51 140.03
  L 1173.27 231.76
  A 0.29 0.28 -85.2 0 1 1172.99 232.00
  L 1035.23 232.00
  Q 1034.69 232.00 1034.60 232.53
  L 1028.09 270.19
  Q 1027.99 270.75 1028.56 270.75
  L 1155.33 270.75
  Q 1155.94 270.75 1155.83 271.34
  L 1139.68 361.97
  Q 1139.58 362.50 1139.04 362.50
  L 1012.23 362.50
  Q 1011.69 362.50 1011.59 363.03
  L 1002.76 412.08
  Q 1002.64 412.75 1003.32 412.75
  Z"
/>
<path fill="#ffffff" d="
  M 1276.49 399.82
  L 1258.33 504.78
  A 0.28 0.27 5.0 0 1 1258.06 505.00
  L 1157.24 505.00
  Q 1156.98 505.00 1157.03 504.74
  L 1221.05 140.28
  Q 1221.14 139.77 1221.66 139.77
  Q 1285.68 139.69 1363.13 139.80
  Q 1370.84 139.81 1379.40 140.35
  C 1401.67 141.76 1424.38 146.29 1443.27 157.15
  C 1464.89 169.59 1478.32 188.97 1482.11 213.14
  Q 1484.10 225.81 1483.21 236.75
  C 1482.79 241.98 1482.16 247.37 1481.31 252.55
  Q 1476.97 278.82 1472.27 303.80
  Q 1470.24 314.62 1466.08 326.29
  Q 1452.40 364.67 1415.58 382.14
  A 0.55 0.55 0.0 0 0 1415.33 382.91
  L 1482.53 504.52
  A 0.34 0.33 75.3 0 1 1482.24 505.02
  Q 1434.52 504.92 1385.66 505.07
  Q 1378.19 505.10 1374.10 503.57
  Q 1366.70 500.82 1362.34 493.07
  Q 1336.18 446.59 1309.86 399.77
  Q 1309.57 399.25 1308.97 399.25
  L 1277.18 399.25
  Q 1276.59 399.25 1276.49 399.82
  Z
  M 1306.06 232.52
  L 1292.93 307.96
  Q 1292.84 308.48 1293.36 308.48
  Q 1316.26 308.52 1342.25 308.49
  Q 1349.76 308.49 1356.80 307.12
  C 1369.21 304.72 1372.52 295.44 1374.51 284.44
  Q 1377.23 269.49 1380.05 253.58
  Q 1381.24 246.87 1380.96 240.76
  C 1380.57 232.35 1366.00 232.11 1360.25 232.08
  Q 1333.63 231.94 1306.61 232.06
  Q 1306.14 232.06 1306.06 232.52
  Z"
/>
<path fill="#ffffff" d="
  M 149.90 140.00
  L 366.55 140.00
  A 0.37 0.37 0.0 0 1 366.91 140.43
  L 364.56 155.19
  A 0.37 0.37 0.0 0 1 364.19 155.50
  L 147.55 155.50
  A 0.37 0.37 0.0 0 1 147.19 155.07
  L 149.53 140.31
  A 0.37 0.37 0.0 0 1 149.90 140.00
  Z"
/>
<path fill="#ffffff" d="
  M 1736.04 412.18
  Q 1767.90 412.32 1799.75 412.20
  Q 1800.75 412.19 1801.75 412.18
  Q 1827.89 411.95 1854.04 412.05
  Q 1854.51 412.05 1854.43 412.52
  L 1838.69 504.25
  Q 1838.60 504.76 1838.07 504.76
  Q 1724.95 504.72 1609.83 504.76
  Q 1605.87 504.76 1602.78 503.42
  C 1595.32 500.18 1589.30 493.42 1588.29 485.27
  Q 1587.88 482.01 1588.96 474.83
  Q 1593.18 446.64 1598.99 419.42
  A 1.60 1.55 77.7 0 1 1599.56 418.50
  C 1615.15 406.35 1630.82 394.32 1646.06 381.75
  Q 1672.32 360.09 1702.86 335.35
  Q 1718.44 322.72 1732.17 309.92
  C 1748.49 294.70 1763.00 276.76 1762.49 253.41
  C 1761.94 228.82 1742.71 217.51 1720.41 215.91
  Q 1699.90 214.44 1679.81 219.98
  Q 1655.50 226.68 1631.38 237.97
  A 0.27 0.27 0.0 0 1 1631.00 237.68
  L 1645.94 152.71
  A 1.08 1.07 -4.1 0 1 1646.67 151.87
  Q 1690.34 137.95 1736.32 141.00
  C 1759.29 142.52 1782.91 148.01 1802.88 159.33
  C 1834.97 177.50 1853.12 208.46 1854.78 244.96
  Q 1854.78 245.15 1854.97 245.15
  L 1854.98 245.15
  Q 1855.14 245.16 1855.16 244.99
  Q 1860.09 201.89 1865.05 158.84
  Q 1865.11 158.25 1865.71 158.25
  L 2069.58 158.25
  Q 2070.16 158.25 2070.09 158.83
  L 2061.23 229.67
  Q 2061.16 230.25 2060.58 230.25
  L 1933.56 230.25
  A 0.69 0.69 0.0 0 0 1932.88 230.83
  L 1925.07 280.00
  A 0.49 0.48 87.6 0 0 1925.66 280.55
  Q 1929.90 279.55 1934.15 279.39
  Q 1954.51 278.61 1975.40 281.45
  Q 2002.72 285.17 2023.66 295.28
  Q 2034.31 300.42 2045.59 308.80
  C 2067.76 325.27 2080.70 347.92 2084.25 376.26
  Q 2089.16 415.34 2071.17 447.33
  C 2044.38 494.98 1989.32 516.00 1936.70 518.09
  Q 1895.07 519.75 1853.91 509.16
  A 0.40 0.40 0.0 0 1 1853.62 508.70
  L 1866.55 434.56
  Q 1866.64 434.03 1867.13 434.26
  Q 1875.78 438.38 1884.55 440.61
  Q 1909.54 446.95 1937.12 444.70
  C 1966.30 442.33 1989.15 431.06 1995.88 400.78
  C 2005.46 357.75 1953.36 345.12 1923.05 342.10
  Q 1883.14 338.13 1844.32 343.65
  Q 1843.81 343.72 1843.87 343.22
  Q 1847.42 312.42 1850.95 281.53
  Q 1850.96 281.45 1850.87 281.43
  L 1850.86 281.42
  Q 1850.63 281.37 1850.56 281.60
  Q 1846.20 296.14 1838.16 309.64
  C 1825.21 331.38 1807.34 350.50 1788.35 367.72
  Q 1763.68 390.10 1735.91 411.80
  Q 1735.43 412.18 1736.04 412.18
  Z"
/>
<path fill="#009640" d="
  M 145.10 170.25
  L 361.76 170.25
  A 0.37 0.37 0.0 0 1 362.12 170.68
  L 359.84 185.19
  A 0.37 0.37 0.0 0 1 359.47 185.50
  L 142.81 185.50
  A 0.37 0.37 0.0 0 1 142.45 185.07
  L 144.73 170.56
  A 0.37 0.37 0.0 0 1 145.10 170.25
  Z"
/>
<path fill="#ffed00" d="
  M 140.41 200.25
  L 356.95 200.25
  A 0.41 0.41 0.0 0 1 357.36 200.72
  L 355.03 215.40
  A 0.41 0.41 0.0 0 1 354.63 215.75
  L 138.06 215.75
  A 0.41 0.41 0.0 0 1 137.66 215.28
  L 140.00 200.60
  A 0.41 0.41 0.0 0 1 140.41 200.25
  Z"
/>
<path fill="#ffffff" d="
  M 248.48 246.00
  L 133.35 246.00
  Q 132.82 246.00 132.91 245.48
  L 135.17 231.05
  A 0.66 0.66 0.0 0 1 135.82 230.50
  L 352.30 230.50
  A 0.30 0.30 0.0 0 1 352.59 230.85
  Q 325.81 387.48 298.99 544.15
  Q 296.86 556.61 294.58 563.67
  C 282.78 600.30 251.55 626.24 213.69 632.14
  Q 205.92 633.35 194.41 633.31
  Q 167.66 633.23 139.10 633.22
  Q 126.50 633.22 112.00 631.49
  C 87.57 628.58 61.63 620.51 43.79 602.71
  C 27.59 586.53 20.32 564.09 21.07 540.77
  Q 21.36 531.81 23.24 520.33
  Q 25.31 507.68 27.86 493.53
  Q 27.96 492.99 28.50 492.99
  L 128.80 493.00
  A 0.35 0.35 0.0 0 1 129.15 493.41
  Q 126.20 509.34 124.15 522.03
  Q 123.10 528.50 123.58 532.52
  Q 124.21 537.74 130.69 539.42
  Q 136.27 540.87 141.25 540.91
  Q 158.91 541.02 181.23 541.06
  Q 186.87 541.07 190.23 539.61
  C 195.98 537.11 199.98 532.04 201.04 525.85
  Q 225.35 384.36 248.98 246.59
  Q 249.08 246.00 248.48 246.00
  Z"
/>
<path fill="#ffffff" d="
  M 382.66 579.35
  Q 381.66 581.67 381.34 585.62
  C 381.14 588.05 382.57 589.53 384.73 590.15
  Q 390.04 591.69 395.01 593.03
  C 401.99 594.91 408.10 598.38 407.79 606.47
  Q 407.49 614.36 405.03 621.46
  Q 401.52 631.56 389.88 633.35
  Q 374.42 635.72 359.29 629.78
  A 0.82 0.81 18.6 0 1 358.80 628.80
  L 361.86 618.08
  A 0.65 0.64 17.1 0 1 362.69 617.65
  Q 371.81 620.79 380.74 621.04
  Q 384.04 621.14 387.11 620.27
  C 391.54 619.03 392.17 612.64 391.99 608.90
  Q 391.96 608.37 391.60 607.98
  Q 389.73 606.01 386.73 605.30
  Q 380.33 603.79 374.85 601.71
  C 368.51 599.31 365.55 594.59 365.96 587.82
  Q 366.49 578.92 369.46 571.92
  C 372.24 565.35 378.14 563.61 384.67 563.11
  Q 398.36 562.05 412.29 565.42
  A 0.66 0.65 12.7 0 1 412.78 566.19
  L 410.30 577.99
  A 0.55 0.54 12.3 0 1 409.64 578.41
  Q 400.60 576.17 390.40 576.24
  C 387.13 576.26 384.07 576.07 382.66 579.35
  Z"
/>
<path fill="#ffffff" d="
  M 428.27 583.86
  C 429.69 575.25 434.35 568.24 442.54 565.29
  Q 451.68 561.99 462.56 563.12
  C 472.02 564.10 481.09 569.77 481.98 580.11
  Q 482.19 582.48 481.33 587.34
  Q 479.02 600.42 476.69 613.50
  Q 473.70 630.22 457.07 633.13
  C 444.95 635.26 427.02 634.74 423.41 619.64
  Q 422.54 616.00 423.74 609.55
  Q 426.27 595.93 428.27 583.86
  Z
  M 439.58 607.40
  C 439.06 610.42 437.68 615.28 439.93 617.76
  C 442.63 620.74 448.28 620.50 451.97 620.11
  C 458.06 619.48 460.91 615.96 461.90 610.10
  Q 464.16 596.72 466.24 585.20
  C 467.94 575.81 457.05 575.59 451.01 577.27
  Q 444.70 579.03 443.51 585.49
  Q 441.49 596.54 439.58 607.40
  Z"
/>
<path fill="#ffffff" d="
  M 604.64 564.27
  C 618.14 561.08 636.76 562.34 640.55 577.98
  Q 641.42 581.57 640.39 586.75
  Q 638.08 598.39 636.59 608.18
  C 634.71 620.44 631.28 629.12 618.87 632.41
  Q 609.39 634.92 599.39 633.61
  C 588.30 632.15 580.15 623.87 582.14 612.50
  Q 585.07 595.75 587.40 582.72
  C 589.10 573.21 595.31 566.47 604.64 564.27
  Z
  M 625.13 585.08
  C 626.85 575.31 614.53 575.56 608.75 577.63
  C 604.75 579.07 602.99 582.10 602.20 586.41
  Q 599.81 599.30 597.68 612.01
  C 596.78 617.40 599.97 619.97 604.76 620.25
  C 612.04 620.66 619.01 619.78 620.53 611.14
  Q 622.70 598.81 625.13 585.08
  Z"
/>
<path fill="#ffffff" d="
  M 672.11 586.31
  C 671.82 594.56 700.30 588.75 698.50 608.10
  C 697.44 619.55 694.84 630.83 681.59 633.14
  Q 665.49 635.95 649.86 629.71
  A 0.59 0.58 19.1 0 1 649.51 629.00
  L 652.61 617.99
  Q 652.77 617.41 653.35 617.61
  Q 663.93 621.31 673.97 620.98
  Q 676.90 620.89 679.15 619.70
  C 682.30 618.03 682.85 612.23 682.76 609.15
  Q 682.75 608.66 682.47 608.24
  Q 681.23 606.37 677.60 605.36
  C 671.20 603.58 660.44 601.87 657.63 594.59
  C 655.31 588.59 657.55 578.97 659.67 573.20
  C 662.41 565.75 667.98 563.73 675.07 563.14
  Q 689.02 561.97 703.03 565.45
  Q 703.65 565.60 703.51 566.23
  L 701.07 577.82
  A 0.75 0.75 0.0 0 1 700.16 578.40
  Q 688.93 575.69 677.66 576.36
  C 672.65 576.65 672.23 582.67 672.11 586.31
  Z"
/>
<path fill="#ffffff" d="
  M 985.38 563.52
  C 998.25 561.51 1014.46 563.63 1017.81 577.79
  Q 1018.72 581.63 1017.62 587.14
  Q 1015.50 597.71 1013.52 610.22
  Q 1012.31 617.88 1009.87 622.35
  C 1004.40 632.32 991.91 634.35 981.05 634.01
  C 971.31 633.71 961.89 629.61 959.65 619.68
  Q 958.76 615.70 960.07 608.64
  Q 962.40 596.08 964.64 583.07
  C 966.59 571.73 974.16 565.26 985.38 563.52
  Z
  M 978.61 591.37
  Q 976.74 601.82 974.99 612.00
  Q 973.82 618.78 980.51 619.94
  C 987.50 621.16 996.12 620.17 997.66 611.78
  Q 1000.10 598.48 1002.37 585.38
  C 1003.29 580.07 1000.76 577.33 995.81 576.71
  C 990.12 576.00 983.38 576.92 980.68 582.43
  C 979.41 585.02 979.15 588.39 978.61 591.37
  Z"
/>
<path fill="#ffffff" d="
  M 1055.98 619.93
  C 1059.65 618.42 1060.20 612.24 1059.98 608.95
  Q 1059.95 608.40 1059.60 607.98
  Q 1058.39 606.50 1056.55 605.93
  C 1047.70 603.17 1033.57 601.77 1033.97 589.02
  Q 1034.30 578.52 1038.13 570.68
  C 1040.90 565.00 1047.14 563.52 1053.08 563.07
  Q 1066.44 562.07 1080.43 565.45
  Q 1080.96 565.58 1080.85 566.11
  L 1078.36 577.90
  A 0.65 0.64 12.2 0 1 1077.58 578.40
  Q 1065.43 575.65 1055.36 576.35
  C 1049.72 576.74 1049.31 583.11 1049.50 587.40
  Q 1049.52 587.93 1049.89 588.30
  Q 1051.46 589.88 1053.64 590.46
  C 1060.09 592.18 1068.12 593.60 1072.78 597.98
  C 1077.86 602.76 1075.55 612.79 1073.90 618.94
  C 1071.50 627.88 1066.12 632.24 1057.08 633.47
  Q 1041.94 635.54 1027.29 629.75
  Q 1026.68 629.51 1026.86 628.88
  L 1029.87 618.13
  Q 1030.07 617.43 1030.75 617.66
  Q 1040.17 620.92 1049.65 621.04
  Q 1053.16 621.09 1055.98 619.93
  Z"
/>
<path fill="#ffffff" d="
  M 1365.36 633.69
  C 1357.77 633.14 1350.64 629.55 1348.41 621.82
  Q 1347.21 617.70 1348.62 610.55
  Q 1351.07 598.05 1353.00 585.83
  C 1354.99 573.15 1360.11 565.33 1373.67 563.39
  Q 1386.25 561.59 1400.92 565.73
  Q 1401.50 565.89 1401.35 566.48
  L 1398.19 578.52
  A 0.70 0.69 -76.6 0 1 1397.37 579.03
  C 1391.34 577.75 1384.81 576.72 1378.56 576.87
  C 1373.47 576.98 1369.83 579.48 1368.86 584.59
  Q 1366.44 597.35 1364.04 611.92
  C 1362.95 618.57 1367.31 620.20 1372.89 620.06
  Q 1381.85 619.83 1389.55 618.19
  Q 1390.30 618.03 1390.33 618.79
  L 1390.80 630.75
  A 0.80 0.78 -8.6 0 1 1390.20 631.55
  C 1384.53 633.02 1378.63 633.70 1372.80 633.98
  Q 1372.53 634.00 1372.45 634.25
  L 1371.35 637.47
  A 0.19 0.19 0.0 0 0 1371.56 637.72
  Q 1379.23 636.56 1380.07 641.84
  C 1382.04 654.24 1367.86 654.91 1359.97 651.87
  Q 1359.70 651.77 1359.79 651.50
  L 1361.36 646.43
  Q 1361.43 646.20 1361.66 646.27
  Q 1365.93 647.58 1370.31 646.87
  A 2.92 2.91 11.4 0 0 1372.31 645.55
  Q 1372.98 644.47 1372.79 643.64
  Q 1372.49 642.37 1371.19 642.32
  Q 1367.75 642.19 1366.22 642.48
  A 2.11 2.11 0.0 0 1 1363.87 639.65
  L 1365.86 634.48
  Q 1366.14 633.74 1365.36 633.69
  Z"
/>
<path fill="#ffffff" d="
  M 1455.02 564.61
  C 1463.36 567.53 1469.24 575.20 1467.75 584.15
  Q 1464.86 601.46 1462.27 614.80
  C 1460.06 626.22 1452.14 631.84 1441.36 633.41
  C 1429.81 635.10 1413.19 634.26 1409.47 620.27
  Q 1408.34 616.02 1409.98 607.48
  Q 1412.27 595.55 1414.00 584.64
  C 1416.62 568.13 1428.35 562.90 1443.35 562.82
  Q 1449.82 562.79 1455.02 564.61
  Z
  M 1429.39 585.51
  C 1427.83 594.01 1426.29 602.54 1424.83 610.98
  Q 1424.24 614.42 1424.85 616.04
  C 1426.70 620.88 1433.75 620.63 1438.19 620.07
  C 1444.64 619.25 1446.98 615.43 1447.95 609.24
  Q 1449.64 598.43 1451.93 586.84
  Q 1452.57 583.57 1452.08 581.52
  C 1450.71 575.80 1441.78 576.01 1437.42 577.09
  Q 1430.63 578.79 1429.39 585.51
  Z"
/>
<path fill="#ffffff" d="
  M 1999.34 564.65
  Q 2008.07 562.82 2016.39 564.20
  C 2024.36 565.53 2031.92 570.76 2033.24 579.01
  Q 2033.83 582.64 2032.94 587.13
  Q 2030.75 598.18 2029.16 608.46
  Q 2027.65 618.20 2024.86 622.77
  Q 2020.20 630.38 2009.48 632.49
  C 1997.48 634.85 1979.51 634.31 1975.93 619.36
  Q 1975.09 615.87 1976.03 610.68
  Q 1978.69 595.97 1980.98 582.99
  C 1982.74 573.06 1989.36 566.74 1999.34 564.65
  Z
  M 2013.74 609.74
  C 2014.97 601.95 2016.42 594.20 2017.93 586.10
  Q 2019.31 578.64 2012.10 577.36
  C 2005.23 576.14 1997.08 577.93 1995.67 585.67
  Q 1993.30 598.64 1991.00 612.22
  C 1989.60 620.45 1998.99 620.54 2004.27 619.81
  C 2010.44 618.96 2012.84 615.42 2013.74 609.74
  Z"
/>
<path fill="#ffffff" d="
  M 2035.19 629.47
  Q 2034.21 629.10 2034.50 628.10
  L 2037.40 617.93
  Q 2037.58 617.29 2038.22 617.48
  C 2045.75 619.68 2052.63 621.23 2060.11 620.49
  C 2066.30 619.88 2067.14 614.04 2067.02 609.09
  Q 2067.01 608.50 2066.64 608.04
  Q 2065.38 606.46 2063.76 605.96
  C 2058.24 604.27 2052.63 603.18 2047.53 600.43
  C 2042.76 597.86 2041.14 593.33 2041.45 588.05
  Q 2041.94 579.65 2044.81 572.66
  C 2047.59 565.89 2053.58 564.37 2060.34 563.86
  Q 2073.52 562.85 2086.97 566.17
  A 0.60 0.60 0.0 0 1 2087.41 566.88
  L 2084.97 578.49
  Q 2084.85 579.06 2084.27 578.92
  Q 2073.69 576.35 2062.77 576.79
  C 2057.04 577.02 2056.84 582.38 2056.54 586.71
  Q 2056.42 588.51 2057.95 589.46
  Q 2059.35 590.32 2060.96 590.77
  C 2070.02 593.32 2083.57 594.78 2082.50 607.64
  C 2081.58 618.83 2079.21 629.65 2066.86 632.38
  Q 2051.86 635.69 2035.19 629.47
  Z"
/>
<path fill="#ffffff" d="
  M 513.06 597.36
  Q 509.29 614.52 504.81 632.40
  Q 504.66 633.00 504.04 633.00
  L 490.21 633.00
  Q 489.47 633.00 489.64 632.29
  L 505.70 564.58
  Q 505.84 564.00 506.43 564.00
  L 520.82 564.00
  Q 521.40 564.00 521.51 564.57
  L 529.78 607.44
  Q 529.90 608.11 530.24 607.52
  L 554.58 564.44
  Q 554.83 564.00 555.34 564.00
  L 569.91 564.00
  Q 570.31 564.00 570.27 564.41
  L 562.29 632.51
  A 0.55 0.55 0.0 0 1 561.74 633.00
  L 547.68 633.00
  A 0.52 0.51 -86.5 0 1 547.17 632.42
  L 551.71 597.28
  Q 551.91 595.74 551.11 597.07
  L 535.31 623.54
  Q 535.03 624.00 534.50 624.00
  L 519.98 624.00
  A 0.82 0.81 84.4 0 1 519.18 623.34
  L 513.95 597.37
  Q 513.52 595.27 513.06 597.36
  Z"
/>
<path fill="#ffffff" d="
  M 762.83 592.50
  L 788.34 592.50
  A 0.37 0.37 0.0 0 1 788.70 592.93
  L 786.43 605.69
  A 0.37 0.37 0.0 0 1 786.07 606.00
  L 760.31 606.00
  A 0.37 0.37 0.0 0 0 759.95 606.31
  L 755.39 632.69
  A 0.37 0.37 0.0 0 1 755.03 633.00
  L 740.33 633.00
  A 0.37 0.37 0.0 0 1 739.97 632.57
  L 751.95 564.31
  A 0.37 0.37 0.0 0 1 752.31 564.00
  L 795.57 564.00
  A 0.37 0.37 0.0 0 1 795.93 564.44
  L 793.65 577.20
  A 0.37 0.37 0.0 0 1 793.29 577.50
  L 765.40 577.50
  A 0.37 0.37 0.0 0 0 765.04 577.80
  L 762.47 592.06
  A 0.37 0.37 0.0 0 0 762.83 592.50
  Z"
/>
<path fill="#ffffff" d="
  M 819.72 604.30
  L 817.10 618.81
  A 0.37 0.37 0.0 0 0 817.46 619.25
  L 844.69 619.25
  A 0.37 0.37 0.0 0 1 845.06 619.68
  L 842.90 632.69
  A 0.37 0.37 0.0 0 1 842.54 633.00
  L 799.69 633.00
  A 0.37 0.37 0.0 0 1 799.33 632.57
  L 811.32 564.31
  A 0.37 0.37 0.0 0 1 811.68 564.00
  L 854.52 564.00
  A 0.37 0.37 0.0 0 1 854.88 564.43
  L 852.61 577.19
  A 0.37 0.37 0.0 0 1 852.25 577.50
  L 824.74 577.50
  A 0.37 0.37 0.0 0 0 824.38 577.81
  L 822.25 590.07
  A 0.37 0.37 0.0 0 0 822.62 590.50
  L 847.71 590.50
  A 0.37 0.37 0.0 0 1 848.07 590.94
  L 845.78 603.70
  A 0.37 0.37 0.0 0 1 845.42 604.00
  L 820.09 604.00
  A 0.37 0.37 0.0 0 0 819.72 604.30
  Z"
/>
<path fill="#ffffff" d="
  M 861.07 632.62
  L 873.07 564.26
  A 0.32 0.32 0.0 0 1 873.39 564.00
  L 888.18 564.00
  A 0.32 0.32 0.0 0 1 888.49 564.38
  L 876.49 632.73
  A 0.32 0.32 0.0 0 1 876.17 632.99
  L 861.38 633.00
  A 0.32 0.32 0.0 0 1 861.07 632.62
  Z"
/>
<path fill="#ffffff" d="
  M 900.62 577.02
  L 902.83 564.35
  A 0.42 0.42 0.0 0 1 903.24 564.00
  L 955.20 564.00
  A 0.42 0.42 0.0 0 1 955.61 564.49
  L 953.36 577.15
  A 0.42 0.42 0.0 0 1 952.95 577.50
  L 935.03 577.51
  A 0.42 0.42 0.0 0 0 934.62 577.86
  L 925.02 632.65
  A 0.42 0.42 0.0 0 1 924.61 633.00
  L 909.91 632.99
  A 0.42 0.42 0.0 0 1 909.50 632.50
  L 919.05 577.98
  A 0.42 0.42 0.0 0 0 918.64 577.49
  L 901.03 577.51
  A 0.42 0.42 0.0 0 1 900.62 577.02
  Z"
/>
<path fill="#ffffff" d="
  M 1170.21 617.19
  C 1168.02 629.23 1158.03 632.98 1147.08 632.99
  Q 1131.58 633.00 1117.76 633.01
  Q 1117.19 633.01 1117.29 632.45
  L 1129.32 564.55
  Q 1129.42 563.99 1129.98 563.99
  Q 1144.26 563.99 1158.02 564.02
  C 1166.40 564.03 1174.26 568.47 1175.99 577.14
  Q 1176.73 580.82 1175.50 587.72
  Q 1173.05 601.53 1170.21 617.19
  Z
  M 1135.13 618.96
  A 0.31 0.30 3.9 0 0 1135.44 619.31
  Q 1140.47 619.15 1145.67 619.30
  C 1150.50 619.44 1154.63 617.92 1155.56 612.68
  Q 1158.03 598.70 1160.30 585.71
  C 1160.98 581.86 1160.25 578.57 1155.63 577.91
  Q 1150.56 577.18 1142.92 577.58
  Q 1142.45 577.61 1142.37 578.07
  L 1135.13 618.96
  Z"
/>
<path fill="#ffffff" d="
  M 1208.69 590.51
  L 1233.82 590.49
  A 0.34 0.34 0.0 0 1 1234.16 590.89
  L 1231.89 603.72
  A 0.34 0.34 0.0 0 1 1231.55 604.00
  L 1206.15 604.00
  A 0.34 0.34 0.0 0 0 1205.82 604.28
  L 1203.20 618.85
  A 0.34 0.34 0.0 0 0 1203.54 619.25
  L 1230.87 619.25
  A 0.34 0.34 0.0 0 1 1231.20 619.65
  L 1228.97 632.72
  A 0.34 0.34 0.0 0 1 1228.63 633.00
  L 1185.75 633.00
  A 0.34 0.34 0.0 0 1 1185.42 632.60
  L 1197.43 564.28
  A 0.34 0.34 0.0 0 1 1197.77 564.00
  L 1240.65 564.00
  A 0.34 0.34 0.0 0 1 1240.99 564.40
  L 1238.72 577.22
  A 0.34 0.34 0.0 0 1 1238.38 577.50
  L 1210.82 577.50
  A 0.34 0.34 0.0 0 0 1210.48 577.78
  L 1208.36 590.11
  A 0.34 0.34 0.0 0 0 1208.69 590.51
  Z"
/>
<path fill="#ffffff" d="
  M 1314.66 619.49
  L 1291.92 619.50
  A 0.36 0.36 0.0 0 0 1291.59 619.71
  L 1285.60 632.78
  A 0.36 0.36 0.0 0 1 1285.27 632.99
  L 1269.32 633.00
  A 0.36 0.36 0.0 0 1 1269.00 632.48
  L 1301.81 564.20
  A 0.36 0.36 0.0 0 1 1302.14 564.00
  L 1322.65 564.01
  A 0.36 0.36 0.0 0 1 1323.00 564.32
  L 1332.76 632.59
  A 0.36 0.36 0.0 0 1 1332.40 633.00
  L 1316.73 633.00
  A 0.36 0.36 0.0 0 1 1316.38 632.68
  L 1315.01 619.81
  A 0.36 0.36 0.0 0 0 1314.66 619.49
  Z
  M 1297.64 606.05
  A 0.32 0.32 0.0 0 0 1297.94 606.50
  L 1313.15 606.50
  A 0.32 0.32 0.0 0 0 1313.47 606.15
  L 1310.80 578.39
  A 0.32 0.32 0.0 0 0 1310.19 578.29
  L 1297.64 606.05
  Z"
/>
<path fill="#009640" d="
  M 1838.24 578.50
  L 1588.71 578.50
  A 0.47 0.47 0.0 0 1 1588.24 578.03
  L 1588.26 564.97
  A 0.47 0.47 0.0 0 1 1588.73 564.50
  L 1844.47 564.50
  A 0.47 0.47 0.0 0 1 1844.90 565.17
  L 1838.67 578.23
  A 0.47 0.47 0.0 0 1 1838.24 578.50
  Z"
/>
<path fill="#ffffff" d="
  M 1949.00 598.93
  Q 1952.92 582.51 1957.74 565.07
  Q 1957.90 564.50 1958.49 564.50
  L 1973.70 564.50
  Q 1974.29 564.50 1974.14 565.08
  L 1956.70 631.98
  A 0.70 0.70 0.0 0 1 1956.02 632.50
  L 1940.87 632.49
  Q 1940.22 632.49 1940.12 631.86
  L 1934.20 597.01
  Q 1934.01 595.91 1933.73 596.99
  L 1924.57 631.93
  Q 1924.42 632.50 1923.83 632.50
  L 1908.49 632.50
  A 0.41 0.41 0.0 0 1 1908.09 631.98
  L 1925.46 565.31
  Q 1925.61 564.75 1926.19 564.75
  L 1941.52 564.75
  Q 1942.02 564.75 1942.10 565.24
  L 1947.82 598.89
  Q 1948.32 601.80 1949.00 598.93
  Z"
/>
<path fill="#ffffff" d="
  M 1880.83 619.25
  L 1858.46 619.25
  A 0.32 0.32 0.0 0 0 1858.16 619.44
  L 1852.25 632.30
  A 0.32 0.32 0.0 0 1 1851.96 632.49
  L 1836.22 632.51
  A 0.32 0.32 0.0 0 1 1835.93 632.05
  L 1868.18 564.93
  A 0.32 0.32 0.0 0 1 1868.47 564.75
  L 1888.68 564.75
  A 0.32 0.32 0.0 0 1 1889.00 565.02
  L 1898.54 632.13
  A 0.32 0.32 0.0 0 1 1898.22 632.49
  L 1882.82 632.50
  A 0.32 0.32 0.0 0 1 1882.50 632.21
  L 1881.15 619.54
  A 0.32 0.32 0.0 0 0 1880.83 619.25
  Z
  M 1876.27 579.08
  L 1864.13 605.96
  A 0.39 0.39 0.0 0 0 1864.49 606.51
  L 1879.08 606.49
  Q 1879.66 606.49 1879.60 605.92
  L 1877.01 579.20
  Q 1876.87 577.75 1876.27 579.08
  Z"
/>
<path fill="#ffed00" d="
  M 1825.43 605.50
  L 1588.58 605.50
  A 0.33 0.33 0.0 0 1 1588.25 605.17
  L 1588.25 592.08
  A 0.33 0.33 0.0 0 1 1588.58 591.75
  L 1831.68 591.75
  A 0.33 0.33 0.0 0 1 1831.97 592.22
  L 1825.73 605.31
  A 0.33 0.33 0.0 0 1 1825.43 605.50
  Z"
/>
<path fill="#ffffff" d="
  M 1812.53 632.50
  L 1588.60 632.50
  A 0.35 0.35 0.0 0 1 1588.25 632.15
  L 1588.25 619.10
  A 0.35 0.35 0.0 0 1 1588.60 618.75
  L 1818.78 618.75
  A 0.35 0.35 0.0 0 1 1819.10 619.25
  L 1812.85 632.30
  A 0.35 0.35 0.0 0 1 1812.53 632.50
  Z"
/>
</svg>
