<?xml version="1.0" encoding="UTF-8" standalone="no"?>
<!DOCTYPE svg PUBLIC "-//W3C//DTD SVG 1.1//EN" "http://www.w3.org/Graphics/SVG/1.1/DTD/svg11.dtd">
<svg xmlns="http://www.w3.org/2000/svg" version="1.1" viewBox="0.00 0.00 2109.00 665.00">
<path fill="#0e4194" d="
  M 189.00 67.05
  L 192.23 49.33
  Q 192.34 48.75 192.92 48.75
  L 206.18 48.75
  Q 206.86 48.75 206.74 49.43
  L 201.83 77.13
  Q 201.64 78.18 200.64 78.54
  C 188.94 82.88 158.59 87.94 154.77 69.36
  Q 153.96 65.41 155.38 57.87
  Q 158.14 43.28 160.01 31.55
  C 162.46 16.21 173.69 11.20 187.62 11.32
  Q 198.38 11.41 209.37 14.52
  A 0.54 0.53 -75.0 0 1 209.74 15.17
  L 206.54 27.47
  Q 206.42 27.95 205.93 27.83
  Q 195.67 25.33 185.79 25.35
  Q 176.61 25.37 175.12 34.16
  Q 173.18 45.50 170.97 56.99
  C 169.81 63.04 169.81 68.50 178.00 68.70
  Q 183.15 68.83 188.38 67.69
  Q 188.90 67.57 189.00 67.05
  Z"
/>
<path fill="#0e4194" d="
  M 459.22 11.93
  Q 468.38 10.53 475.97 12.23
  C 486.44 14.57 493.59 22.93 491.53 33.85
  Q 489.15 46.43 487.18 58.65
  C 485.21 70.89 480.60 78.75 467.74 81.43
  C 455.88 83.91 437.10 83.52 433.27 68.51
  Q 432.30 64.71 433.33 59.13
  Q 435.81 45.57 438.06 32.46
  C 440.14 20.30 447.34 13.76 459.22 11.93
  Z
  M 459.27 26.32
  Q 454.31 28.37 453.27 34.08
  Q 450.51 49.29 448.57 60.89
  C 447.18 69.24 456.64 69.36 462.30 68.51
  Q 470.02 67.35 471.37 59.85
  Q 473.65 47.29 476.04 33.45
  C 477.73 23.62 464.84 24.01 459.27 26.32
  Z"
/>
<path fill="#0e4194" d="
  M 266.28 57.67
  A 0.38 0.38 0.0 0 0 266.08 58.21
  L 278.71 81.07
  A 0.29 0.29 0.0 0 1 278.46 81.50
  L 261.94 81.50
  Q 261.51 81.50 261.30 81.13
  L 249.73 60.55
  Q 249.42 60.00 248.79 60.00
  L 239.73 60.00
  Q 239.19 60.00 239.10 60.53
  L 235.57 80.95
  Q 235.47 81.50 234.92 81.50
  L 220.51 81.50
  A 0.43 0.42 5.1 0 1 220.09 81.00
  L 232.06 12.81
  Q 232.16 12.28 232.70 12.28
  Q 245.63 12.19 258.23 12.30
  C 269.17 12.39 282.09 15.51 280.67 29.52
  Q 280.12 34.95 279.03 40.54
  C 277.39 49.03 274.57 54.79 266.28 57.67
  Z
  M 263.20 41.23
  Q 264.38 36.93 264.99 31.50
  C 265.45 27.50 262.25 26.14 258.93 26.07
  Q 252.61 25.94 245.73 26.00
  Q 245.21 26.01 245.12 26.52
  L 241.75 45.80
  Q 241.64 46.46 242.30 46.47
  Q 249.99 46.59 256.58 46.41
  Q 261.81 46.27 263.20 41.23
  Z"
/>
<path fill="#0e4194" d="
  M 322.81 68.74
  C 328.57 68.42 331.95 65.54 332.90 60.24
  Q 337.29 35.66 341.27 12.85
  Q 341.37 12.25 341.99 12.25
  L 356.49 12.26
  A 0.31 0.31 0.0 0 1 356.80 12.63
  Q 352.63 36.19 348.50 60.01
  C 346.72 70.28 342.95 77.87 332.35 80.87
  C 320.93 84.10 300.14 84.26 296.17 68.99
  Q 295.23 65.41 296.57 58.03
  Q 300.67 35.38 304.57 12.66
  Q 304.64 12.25 305.05 12.25
  L 319.46 12.25
  Q 320.14 12.25 320.02 12.92
  Q 315.91 36.23 311.66 60.26
  C 310.20 68.49 316.68 69.07 322.81 68.74
  Z"
/>
<path fill="#0e4194" d="
  M 382.64 61.12
  L 379.15 80.81
  A 0.83 0.83 0.0 0 1 378.33 81.50
  L 364.16 81.50
  Q 363.55 81.50 363.66 80.90
  L 375.61 12.85
  Q 375.71 12.30 376.27 12.30
  Q 388.76 12.21 400.23 12.28
  C 406.54 12.31 415.37 12.76 420.01 17.56
  Q 424.76 22.48 424.06 28.93
  Q 423.38 35.23 421.80 42.97
  C 419.17 55.91 411.22 60.31 398.59 60.46
  Q 391.44 60.55 383.43 60.47
  Q 382.76 60.46 382.64 61.12
  Z
  M 408.13 31.42
  C 408.50 27.91 405.71 26.10 402.55 26.06
  Q 396.02 25.96 389.38 25.99
  Q 388.86 26.00 388.77 26.51
  L 385.28 46.48
  Q 385.18 47.06 385.77 47.05
  Q 391.74 46.90 397.65 47.06
  C 402.19 47.18 405.60 45.92 406.60 41.06
  Q 407.67 35.91 408.13 31.42
  Z"
/>
<path fill="#0e4194" d="
  M 486.03 228.56
  L 479.49 266.33
  A 0.36 0.36 0.0 0 0 479.84 266.75
  L 606.93 266.75
  A 0.37 0.37 0.0 0 1 607.29 267.19
  L 591.11 357.94
  A 0.68 0.68 0.0 0 1 590.44 358.50
  L 463.44 358.50
  Q 463.12 358.50 463.06 358.81
  L 454.15 408.29
  A 0.40 0.39 4.9 0 0 454.54 408.75
  L 592.24 408.75
  A 0.21 0.20 -85.2 0 1 592.44 408.99
  L 576.95 500.49
  Q 576.85 501.06 576.28 501.06
  Q 471.13 500.92 364.13 501.06
  Q 359.67 501.06 356.07 499.75
  C 346.25 496.17 339.58 485.57 341.44 475.03
  Q 371.84 302.31 401.07 135.94
  A 0.24 0.23 -83.9 0 1 401.30 135.75
  L 640.42 135.75
  Q 640.98 135.75 640.88 136.30
  L 624.75 227.54
  Q 624.66 228.00 624.20 228.00
  L 486.70 228.00
  Q 486.13 228.00 486.03 228.56
  Z"
/>
<path fill="#0e4194" d="
  M 751.58 277.00
  L 880.28 277.00
  Q 880.82 277.00 880.73 277.53
  L 864.59 368.08
  Q 864.47 368.75 863.79 368.75
  L 735.19 368.75
  Q 734.61 368.75 734.52 369.32
  L 711.85 500.29
  Q 711.72 501.03 710.96 501.03
  Q 672.69 500.92 639.12 501.08
  Q 633.39 501.11 629.68 499.81
  C 622.00 497.11 616.20 490.09 614.96 482.03
  Q 614.36 478.08 615.65 470.75
  Q 644.84 304.96 674.48 136.22
  Q 674.57 135.75 675.04 135.75
  L 915.99 135.75
  Q 916.49 135.75 916.40 136.24
  L 900.25 227.54
  Q 900.17 228.00 899.71 228.00
  L 759.90 228.00
  Q 759.55 228.00 759.49 228.34
  L 751.01 276.33
  Q 750.89 277.00 751.58 277.00
  Z"
/>
<path fill="#0e4194" d="
  M 1003.33 408.75
  L 1140.65 408.75
  A 0.35 0.35 0.0 0 1 1140.99 409.16
  L 1125.53 500.52
  A 0.54 0.53 4.4 0 1 1125.00 500.97
  Q 1021.19 501.04 911.49 500.98
  C 897.54 500.97 887.87 487.49 890.17 474.39
  Q 919.94 304.98 949.61 136.08
  A 0.40 0.40 0.0 0 1 950.00 135.75
  L 1188.91 135.75
  Q 1189.57 135.75 1189.45 136.40
  L 1173.33 227.51
  Q 1173.25 228.00 1172.75 228.00
  L 1035.24 228.00
  Q 1034.71 228.00 1034.62 228.52
  L 1028.09 266.26
  Q 1028.01 266.75 1028.51 266.75
  L 1155.47 266.75
  A 0.41 0.41 0.0 0 1 1155.87 267.23
  L 1139.69 357.96
  Q 1139.59 358.50 1139.04 358.50
  L 1012.06 358.50
  Q 1011.70 358.50 1011.64 358.85
  L 1002.77 408.08
  Q 1002.65 408.75 1003.33 408.75
  Z"
/>
<path fill="#0e4194" d="
  M 1276.51 395.82
  L 1258.40 500.47
  Q 1258.31 501.00 1257.77 501.00
  L 1157.48 501.00
  Q 1156.97 501.00 1157.06 500.49
  L 1221.08 136.06
  A 0.36 0.35 -85.2 0 1 1221.43 135.76
  Q 1294.72 135.72 1363.83 135.78
  Q 1380.25 135.80 1397.65 138.30
  C 1438.34 144.17 1475.54 165.14 1482.18 209.53
  Q 1484.80 227.01 1481.90 244.88
  Q 1476.91 275.64 1471.96 301.40
  Q 1470.04 311.36 1465.89 322.88
  Q 1452.24 360.69 1415.58 378.16
  A 0.54 0.53 63.2 0 0 1415.34 378.90
  L 1482.60 500.61
  A 0.27 0.27 0.0 0 1 1482.37 501.01
  Q 1434.13 500.94 1384.54 501.06
  Q 1378.24 501.08 1374.38 499.60
  Q 1366.52 496.59 1362.35 489.15
  Q 1335.89 442.05 1309.76 395.66
  A 0.80 0.80 0.0 0 0 1309.06 395.25
  L 1277.19 395.25
  Q 1276.61 395.25 1276.51 395.82
  Z
  M 1361.22 301.80
  C 1370.16 298.45 1372.98 289.16 1374.53 280.50
  Q 1377.38 264.64 1380.05 249.25
  Q 1381.41 241.45 1380.85 236.20
  C 1380.30 231.06 1374.16 229.36 1369.75 228.78
  Q 1364.00 228.03 1358.28 228.02
  Q 1333.95 227.97 1306.69 228.00
  Q 1306.17 228.01 1306.08 228.52
  L 1292.97 303.78
  Q 1292.85 304.50 1293.58 304.50
  Q 1317.58 304.55 1343.47 304.44
  Q 1354.30 304.39 1361.22 301.80
  Z"
/>
<path fill="#0e4194" d="
  M 149.88 136.00
  L 366.57 136.00
  A 0.36 0.36 0.0 0 1 366.92 136.42
  L 364.57 151.20
  A 0.36 0.36 0.0 0 1 364.21 151.50
  L 147.53 151.50
  A 0.36 0.36 0.0 0 1 147.18 151.08
  L 149.52 136.30
  A 0.36 0.36 0.0 0 1 149.88 136.00
  Z"
/>
<path fill="#0e4194" d="
  M 1736.04 408.32
  L 1854.00 407.95
  Q 1854.54 407.95 1854.45 408.49
  L 1838.70 500.22
  Q 1838.61 500.76 1838.06 500.76
  Q 1724.09 500.72 1609.21 500.78
  C 1599.97 500.78 1591.74 492.75 1589.06 484.79
  Q 1587.72 480.81 1588.38 475.32
  Q 1589.27 467.99 1590.51 460.53
  Q 1594.12 438.87 1598.89 415.57
  A 1.92 1.89 -13.7 0 1 1599.57 414.47
  C 1615.05 402.40 1630.72 390.41 1645.88 377.87
  Q 1671.75 356.50 1700.99 332.88
  Q 1716.37 320.45 1731.14 306.86
  C 1748.37 291.01 1763.12 272.79 1762.44 249.25
  C 1761.71 224.18 1742.13 213.35 1719.54 211.85
  Q 1699.52 210.53 1679.27 216.14
  Q 1655.69 222.68 1631.33 234.00
  A 0.25 0.25 0.0 0 1 1630.98 233.72
  L 1645.93 148.68
  A 1.03 1.03 0.0 0 1 1646.63 147.88
  Q 1694.67 132.56 1744.81 137.76
  C 1769.22 140.29 1794.15 147.90 1813.80 162.36
  C 1839.43 181.22 1853.49 209.53 1854.78 240.96
  Q 1854.79 241.14 1854.97 241.14
  L 1854.97 241.14
  Q 1855.11 241.15 1855.13 241.01
  Q 1859.90 199.73 1865.02 154.89
  Q 1865.09 154.25 1865.73 154.25
  L 2069.55 154.25
  Q 2070.18 154.25 2070.10 154.87
  L 2061.24 225.79
  Q 2061.18 226.25 2060.72 226.25
  L 1933.59 226.25
  A 0.71 0.69 4.2 0 0 1932.89 226.84
  L 1925.08 276.05
  A 0.42 0.42 0.0 0 0 1925.58 276.53
  Q 1931.74 275.30 1937.69 275.24
  C 1971.24 274.95 2005.20 279.54 2033.44 296.60
  Q 2042.36 301.99 2049.77 308.05
  Q 2078.54 331.56 2084.00 370.25
  C 2087.53 395.23 2084.02 419.62 2071.92 441.99
  C 2045.76 490.35 1989.75 511.98 1937.32 514.08
  Q 1895.28 515.77 1853.93 505.20
  Q 1853.53 505.10 1853.60 504.70
  L 1866.54 430.55
  Q 1866.63 430.01 1867.13 430.25
  C 1885.14 438.80 1906.09 441.63 1926.41 441.24
  C 1949.63 440.80 1975.36 436.33 1988.50 415.28
  Q 1994.69 405.36 1996.58 392.65
  C 2001.15 361.91 1970.68 347.39 1946.11 341.92
  Q 1931.31 338.64 1916.96 337.53
  C 1892.65 335.64 1868.25 336.21 1844.30 339.70
  Q 1843.81 339.77 1843.87 339.28
  L 1850.94 277.55
  Q 1850.95 277.45 1850.85 277.43
  L 1850.57 277.37
  Q 1850.51 277.36 1850.49 277.42
  Q 1848.27 286.03 1844.30 294.17
  C 1832.69 317.98 1814.82 338.83 1795.56 357.01
  Q 1769.78 381.33 1735.87 407.84
  Q 1735.25 408.32 1736.04 408.32
  Z"
/>
<path fill="#009640" d="
  M 145.10 166.25
  L 361.76 166.25
  A 0.37 0.37 0.0 0 1 362.12 166.68
  L 359.84 181.19
  A 0.37 0.37 0.0 0 1 359.47 181.50
  L 142.81 181.50
  A 0.37 0.37 0.0 0 1 142.45 181.07
  L 144.73 166.56
  A 0.37 0.37 0.0 0 1 145.10 166.25
  Z"
/>
<path fill="#ffed00" d="
  M 140.41 196.25
  L 356.95 196.25
  A 0.41 0.41 0.0 0 1 357.36 196.72
  L 355.03 211.40
  A 0.41 0.41 0.0 0 1 354.63 211.75
  L 138.06 211.75
  A 0.41 0.41 0.0 0 1 137.66 211.28
  L 140.00 196.60
  A 0.41 0.41 0.0 0 1 140.41 196.25
  Z"
/>
<path fill="#0e4194" d="
  M 248.45 242.00
  L 133.28 242.00
  Q 132.81 242.00 132.88 241.53
  L 135.17 227.00
  A 0.59 0.59 0.0 0 1 135.75 226.50
  L 352.26 226.50
  A 0.38 0.38 0.0 0 1 352.64 226.94
  Q 325.96 382.33 298.75 541.97
  Q 297.07 551.85 294.84 558.89
  C 283.21 595.68 252.27 622.06 213.94 628.12
  Q 206.19 629.35 194.43 629.32
  Q 164.76 629.26 137.81 629.16
  C 93.73 629.01 39.49 616.07 25.04 567.41
  Q 20.57 552.36 21.09 536.83
  C 21.60 521.54 25.09 505.17 27.82 489.57
  Q 27.92 489.00 28.50 489.00
  L 128.97 489.00
  A 0.24 0.24 0.0 0 1 129.21 489.28
  Q 126.49 503.63 124.26 517.04
  Q 123.36 522.50 123.51 527.73
  C 123.75 535.60 133.26 536.10 139.10 536.75
  Q 141.01 536.97 142.89 536.97
  Q 161.24 536.95 180.07 537.09
  Q 186.56 537.13 189.94 535.73
  Q 195.36 533.48 198.62 528.37
  Q 200.46 525.48 201.57 518.99
  Q 225.84 377.17 248.97 242.62
  Q 249.08 242.00 248.45 242.00
  Z"
/>
<path fill="#636a6e" d="
  M 391.35 603.67
  Q 389.67 602.20 387.42 601.56
  C 379.80 599.39 366.93 597.51 366.09 587.38
  Q 365.68 582.44 366.81 576.70
  C 368.63 567.40 371.40 560.63 382.27 559.39
  Q 397.35 557.66 412.49 561.48
  A 0.45 0.45 0.0 0 1 412.83 562.01
  L 410.31 574.07
  A 0.50 0.50 0.0 0 1 409.70 574.45
  Q 398.92 571.85 387.63 572.28
  C 381.95 572.50 381.69 577.81 381.33 582.07
  C 381.15 584.18 382.98 585.67 384.84 586.19
  Q 390.03 587.63 395.27 589.09
  C 399.43 590.25 404.78 592.56 406.69 596.63
  C 409.02 601.58 407.27 608.60 406.12 613.91
  Q 403.17 627.45 389.86 629.37
  Q 373.99 631.66 359.30 625.79
  A 0.86 0.86 0.0 0 1 358.80 624.76
  L 361.85 614.07
  A 0.65 0.64 17.0 0 1 362.68 613.63
  C 368.22 615.57 387.57 620.57 390.61 613.18
  Q 392.18 609.36 391.98 604.97
  A 1.87 1.85 19.4 0 0 391.35 603.67
  Z"
/>
<path fill="#636a6e" d="
  M 428.50 578.71
  C 430.24 568.64 437.09 562.06 446.76 559.98
  C 458.97 557.35 478.45 558.41 481.66 573.99
  Q 482.55 578.31 480.90 586.24
  Q 479.17 594.52 477.90 602.91
  Q 476.68 610.94 475.26 615.01
  C 472.03 624.29 463.61 628.52 453.93 629.63
  C 443.83 630.79 432.29 630.16 426.08 621.63
  C 423.07 617.49 422.51 612.59 423.43 607.46
  Q 426.09 592.67 428.50 578.71
  Z
  M 438.86 607.71
  Q 437.59 615.10 444.77 616.05
  C 450.02 616.75 456.84 616.49 459.95 611.68
  Q 461.40 609.44 462.19 604.41
  Q 464.00 592.98 466.23 581.54
  C 466.97 577.74 465.86 574.39 461.85 573.25
  C 455.30 571.38 445.16 572.63 443.62 580.99
  Q 441.36 593.26 438.86 607.71
  Z"
/>
<path fill="#636a6e" d="
  M 606.39 559.82
  Q 615.81 557.93 624.45 559.60
  C 632.25 561.11 639.36 566.58 640.74 574.60
  Q 641.28 577.73 640.43 582.46
  Q 638.12 595.31 635.43 610.16
  Q 632.82 624.58 619.12 628.33
  C 606.85 631.69 585.14 631.71 582.13 614.87
  Q 581.48 611.21 582.69 604.82
  Q 585.29 591.02 587.33 579.00
  C 589.11 568.50 596.00 561.91 606.39 559.82
  Z
  M 620.67 573.29
  C 615.81 571.81 608.46 572.17 604.77 576.32
  Q 603.07 578.23 602.77 579.75
  Q 600.05 593.79 597.79 607.49
  Q 597.29 610.53 597.79 612.01
  C 599.40 616.81 607.04 616.65 611.27 616.05
  Q 619.12 614.95 620.47 607.36
  Q 623.02 593.08 625.15 580.67
  Q 626.13 574.95 620.67 573.29
  Z"
/>
<path fill="#636a6e" d="
  M 679.76 602.14
  Q 674.61 600.49 668.90 598.93
  C 663.18 597.37 657.50 593.89 656.86 587.59
  Q 656.31 582.18 657.92 574.99
  C 660.23 564.63 664.11 560.04 675.05 559.13
  Q 688.94 557.97 703.03 561.44
  Q 703.66 561.59 703.53 562.23
  L 701.09 573.80
  Q 700.93 574.57 700.15 574.40
  Q 688.17 571.62 677.92 572.36
  C 672.57 572.74 672.25 578.38 672.12 582.46
  C 672.04 584.83 674.71 586.07 676.66 586.54
  Q 682.66 588.01 687.98 589.74
  C 695.11 592.07 699.21 595.94 698.49 604.11
  C 697.48 615.57 694.83 626.85 681.56 629.16
  Q 665.48 631.97 649.84 625.72
  A 0.60 0.60 0.0 0 1 649.49 625.00
  L 652.60 613.98
  Q 652.77 613.39 653.34 613.59
  Q 663.56 617.20 673.44 616.99
  Q 676.42 616.93 678.81 615.88
  C 682.13 614.42 682.91 608.46 682.72 605.56
  Q 682.55 603.04 679.76 602.14
  Z"
/>
<path fill="#636a6e" d="
  M 994.04 558.82
  C 1004.58 558.79 1015.38 563.01 1017.85 573.99
  Q 1018.70 577.76 1017.67 582.99
  Q 1015.24 595.46 1013.31 607.53
  C 1011.52 618.69 1006.53 626.14 994.88 628.75
  Q 984.54 631.08 974.94 629.30
  C 967.17 627.86 960.25 622.27 959.38 614.18
  Q 958.98 610.50 959.83 605.90
  Q 962.46 591.68 964.58 579.27
  C 967.30 563.46 979.76 558.86 994.04 558.82
  Z
  M 979.85 580.81
  C 978.07 589.79 976.58 598.99 974.99 608.00
  C 973.46 616.66 982.65 616.85 988.47 616.06
  Q 996.45 614.98 997.82 607.22
  Q 1000.15 593.97 1002.38 581.28
  Q 1003.49 574.94 998.10 573.29
  C 991.53 571.27 981.45 572.72 979.85 580.81
  Z"
/>
<path fill="#636a6e" d="
  M 1055.27 601.48
  Q 1048.65 599.87 1042.88 597.72
  C 1036.00 595.15 1033.35 589.80 1034.04 582.60
  Q 1034.73 575.39 1036.97 569.11
  C 1039.68 561.53 1045.84 559.54 1053.23 559.05
  Q 1067.43 558.12 1080.76 561.55
  A 0.22 0.21 12.7 0 1 1080.92 561.80
  L 1078.38 573.92
  A 0.67 0.67 0.0 0 1 1077.57 574.43
  Q 1066.50 571.76 1055.74 572.30
  C 1049.73 572.60 1049.33 578.90 1049.52 583.49
  Q 1049.53 583.90 1049.81 584.21
  Q 1051.17 585.71 1053.16 586.27
  C 1058.97 587.91 1065.52 589.09 1070.76 592.33
  Q 1076.35 595.80 1075.85 603.30
  Q 1075.46 609.18 1073.81 615.36
  Q 1070.63 627.26 1058.47 629.24
  Q 1042.42 631.85 1027.20 625.72
  Q 1026.67 625.51 1026.82 624.96
  L 1029.85 614.12
  Q 1030.06 613.40 1030.76 613.66
  Q 1040.37 617.11 1050.77 616.99
  C 1058.61 616.90 1060.08 612.15 1060.04 605.37
  C 1060.03 603.27 1056.99 601.90 1055.27 601.48
  Z"
/>
<path fill="#636a6e" d="
  M 1365.38 629.73
  C 1357.61 629.00 1350.64 625.68 1348.39 617.70
  Q 1347.34 613.98 1348.43 607.76
  Q 1351.74 588.94 1353.94 577.44
  Q 1356.89 561.96 1373.24 559.45
  Q 1385.98 557.49 1400.98 561.73
  Q 1401.52 561.88 1401.38 562.43
  L 1398.21 574.50
  Q 1398.03 575.21 1397.31 575.05
  Q 1387.72 572.96 1379.44 572.82
  C 1372.27 572.69 1369.51 576.37 1368.39 582.82
  Q 1366.21 595.36 1364.02 608.03
  C 1363.11 613.31 1366.20 616.02 1371.20 616.03
  Q 1381.05 616.04 1389.38 614.20
  Q 1390.31 613.99 1390.34 614.94
  L 1390.80 626.75
  Q 1390.83 627.38 1390.22 627.54
  C 1384.62 629.07 1378.66 629.70 1372.89 629.99
  Q 1372.59 630.00 1372.48 630.28
  Q 1371.82 631.94 1371.35 633.79
  A 0.04 0.04 0.0 0 0 1371.40 633.84
  C 1376.85 632.58 1380.57 634.62 1380.33 640.53
  C 1379.94 650.55 1366.84 650.48 1360.00 647.91
  Q 1359.69 647.79 1359.79 647.47
  L 1361.32 642.50
  Q 1361.42 642.15 1361.77 642.26
  Q 1365.71 643.52 1369.87 642.92
  A 2.94 2.85 22.7 0 0 1371.09 642.44
  Q 1373.04 641.10 1372.81 639.80
  Q 1372.54 638.34 1371.07 638.32
  Q 1367.59 638.25 1366.09 638.46
  A 2.08 2.08 0.0 0 1 1363.85 635.66
  L 1365.84 630.48
  Q 1366.10 629.80 1365.38 629.73
  Z"
/>
<path fill="#636a6e" d="
  M 1414.47 578.34
  C 1415.88 570.30 1421.20 563.74 1429.04 561.13
  Q 1439.92 557.52 1451.24 559.57
  Q 1459.44 561.05 1464.30 566.97
  C 1467.76 571.17 1468.51 576.38 1467.50 582.03
  Q 1464.88 596.74 1462.40 610.34
  C 1459.56 625.93 1447.07 629.80 1433.15 630.06
  C 1422.94 630.24 1410.89 626.54 1409.17 614.71
  Q 1408.62 610.96 1409.66 605.24
  Q 1412.19 591.41 1414.47 578.34
  Z
  M 1429.39 581.54
  C 1427.89 590.14 1426.15 598.88 1424.77 607.45
  C 1423.94 612.62 1425.86 615.55 1431.07 616.12
  C 1438.56 616.92 1446.13 615.80 1447.60 606.98
  Q 1449.74 594.10 1452.04 581.91
  Q 1452.50 579.44 1452.07 577.54
  C 1450.78 571.81 1441.68 572.02 1437.38 573.12
  Q 1430.56 574.86 1429.39 581.54
  Z"
/>
<path fill="#636a6e" d="
  M 2028.36 608.81
  C 2026.65 618.73 2021.52 625.55 2011.50 628.02
  C 1999.60 630.96 1979.83 631.06 1975.99 615.65
  Q 1975.02 611.75 1976.18 605.54
  Q 1978.71 592.11 1980.90 579.19
  C 1982.50 569.79 1988.70 563.18 1998.16 560.92
  Q 2007.39 558.72 2016.32 560.18
  C 2024.44 561.51 2032.06 566.83 2033.29 575.28
  Q 2033.77 578.58 2032.99 582.82
  Q 2030.61 595.70 2028.36 608.81
  Z
  M 2013.86 573.84
  C 2006.96 571.83 1997.27 573.19 1995.72 581.58
  Q 1993.47 593.73 1991.02 608.08
  C 1990.41 611.71 1991.91 614.73 1995.63 615.51
  C 2002.53 616.95 2011.74 616.14 2013.27 607.82
  Q 2015.60 595.19 2018.04 580.92
  C 2018.59 577.69 2017.16 574.81 2013.86 573.84
  Z"
/>
<path fill="#636a6e" d="
  M 2063.85 602.04
  C 2058.83 600.37 2052.96 599.33 2047.96 596.69
  Q 2042.19 593.64 2041.58 587.64
  C 2040.95 581.35 2042.60 573.15 2045.42 567.40
  Q 2048.47 561.18 2057.35 560.17
  Q 2072.40 558.46 2086.89 562.17
  Q 2087.55 562.33 2087.41 563.00
  L 2084.96 574.55
  A 0.52 0.51 -77.1 0 1 2084.33 574.95
  Q 2073.79 572.36 2062.90 572.79
  Q 2058.28 572.97 2057.39 577.06
  C 2056.96 579.08 2055.97 582.66 2057.06 584.49
  Q 2057.92 585.94 2060.42 586.60
  Q 2067.05 588.33 2073.00 590.24
  C 2079.22 592.24 2083.13 596.58 2082.50 603.67
  C 2081.46 615.28 2079.09 626.38 2065.51 628.71
  Q 2050.22 631.32 2034.96 625.36
  Q 2034.21 625.07 2034.43 624.29
  L 2037.39 613.92
  A 0.67 0.66 -74.7 0 1 2038.19 613.46
  C 2046.12 615.61 2052.75 617.32 2060.48 616.41
  C 2066.32 615.73 2067.18 609.75 2067.00 605.01
  A 1.61 1.61 0.0 0 0 2066.66 604.08
  Q 2065.53 602.60 2063.85 602.04
  Z"
/>
<path fill="#636a6e" d="
  M 551.72 593.08
  Q 551.89 591.78 551.22 592.91
  L 535.37 619.47
  Q 535.05 620.00 534.44 620.00
  L 519.78 620.00
  Q 519.30 620.00 519.20 619.53
  L 513.86 593.01
  Q 513.60 591.74 513.30 593.00
  L 504.87 628.50
  Q 504.75 629.00 504.24 629.00
  L 490.23 629.00
  Q 489.46 629.00 489.64 628.25
  L 505.68 560.64
  Q 505.83 560.00 506.49 560.00
  L 520.83 560.00
  Q 521.41 560.00 521.52 560.58
  L 529.79 603.45
  Q 529.91 604.06 530.22 603.52
  L 554.57 560.45
  Q 554.82 560.00 555.33 560.00
  L 569.79 560.00
  Q 570.32 560.00 570.26 560.54
  L 562.31 628.51
  Q 562.25 629.00 561.75 629.00
  L 547.54 629.00
  A 0.41 0.40 -86.3 0 1 547.14 628.54
  L 551.72 593.08
  Z"
/>
<path fill="#636a6e" d="
  M 762.79 588.50
  L 788.43 588.50
  A 0.31 0.31 0.0 0 1 788.73 588.86
  L 786.44 601.74
  A 0.31 0.31 0.0 0 1 786.13 602.00
  L 760.27 602.00
  A 0.31 0.31 0.0 0 0 759.97 602.26
  L 755.38 628.74
  A 0.31 0.31 0.0 0 1 755.08 629.00
  L 740.24 629.00
  A 0.31 0.31 0.0 0 1 739.93 628.64
  L 751.94 560.26
  A 0.31 0.31 0.0 0 1 752.25 560.00
  L 795.65 560.00
  A 0.31 0.31 0.0 0 1 795.95 560.36
  L 793.66 573.24
  A 0.31 0.31 0.0 0 1 793.35 573.50
  L 765.35 573.50
  A 0.31 0.31 0.0 0 0 765.04 573.76
  L 762.48 588.14
  A 0.31 0.31 0.0 0 0 762.79 588.50
  Z"
/>
<path fill="#636a6e" d="
  M 822.62 586.50
  L 847.74 586.50
  A 0.36 0.36 0.0 0 1 848.09 586.92
  L 845.79 599.69
  A 0.36 0.36 0.0 0 1 845.44 599.99
  L 820.09 600.00
  A 0.36 0.36 0.0 0 0 819.74 600.30
  L 817.12 614.84
  A 0.36 0.36 0.0 0 0 817.47 615.26
  L 844.73 615.25
  A 0.36 0.36 0.0 0 1 845.08 615.67
  L 842.92 628.70
  A 0.36 0.36 0.0 0 1 842.56 629.00
  L 799.67 629.00
  A 0.36 0.36 0.0 0 1 799.31 628.58
  L 811.31 560.30
  A 0.36 0.36 0.0 0 1 811.66 560.00
  L 854.55 560.00
  A 0.36 0.36 0.0 0 1 854.90 560.42
  L 852.62 573.20
  A 0.36 0.36 0.0 0 1 852.27 573.50
  L 824.74 573.50
  A 0.36 0.36 0.0 0 0 824.39 573.80
  L 822.26 586.08
  A 0.36 0.36 0.0 0 0 822.62 586.50
  Z"
/>
<path fill="#636a6e" d="
  M 888.51 560.36
  L 876.51 628.74
  A 0.31 0.31 0.0 0 1 876.20 629.00
  L 861.36 629.00
  A 0.31 0.31 0.0 0 1 861.05 628.64
  L 873.06 560.26
  A 0.31 0.31 0.0 0 1 873.37 560.00
  L 888.20 560.00
  A 0.31 0.31 0.0 0 1 888.51 560.36
  Z"
/>
<path fill="#636a6e" d="
  M 900.59 573.10
  L 902.83 560.29
  A 0.35 0.35 0.0 0 1 903.17 560.00
  L 955.30 560.00
  A 0.35 0.35 0.0 0 1 955.65 560.41
  L 953.36 573.21
  A 0.35 0.35 0.0 0 1 953.02 573.50
  L 934.99 573.50
  A 0.35 0.35 0.0 0 0 934.65 573.79
  L 925.01 628.71
  A 0.35 0.35 0.0 0 1 924.67 629.00
  L 909.81 628.99
  A 0.35 0.35 0.0 0 1 909.46 628.58
  L 919.05 573.90
  A 0.35 0.35 0.0 0 0 918.70 573.49
  L 900.94 573.51
  A 0.35 0.35 0.0 0 1 900.59 573.10
  Z"
/>
<path fill="#636a6e" d="
  M 1170.08 614.01
  C 1169.23 618.62 1166.15 623.19 1162.54 625.29
  Q 1156.32 628.90 1147.81 628.96
  Q 1133.23 629.05 1117.45 628.98
  A 0.22 0.22 0.0 0 1 1117.23 628.72
  L 1129.31 560.55
  Q 1129.41 559.98 1129.99 559.98
  Q 1143.48 560.03 1157.04 559.98
  C 1168.98 559.93 1178.08 567.31 1176.08 580.01
  Q 1174.66 588.97 1170.08 614.01
  Z
  M 1142.38 574.06
  L 1135.18 614.71
  Q 1135.08 615.30 1135.68 615.28
  Q 1140.50 615.18 1145.64 615.28
  C 1150.83 615.39 1154.70 613.80 1155.62 608.35
  Q 1157.40 597.69 1160.41 581.27
  C 1161.12 577.40 1159.60 574.27 1155.23 573.80
  Q 1149.90 573.21 1142.96 573.55
  Q 1142.47 573.57 1142.38 574.06
  Z"
/>
<path fill="#636a6e" d="
  M 1208.72 586.50
  L 1233.83 586.49
  A 0.35 0.35 0.0 0 1 1234.18 586.90
  L 1231.90 599.71
  A 0.35 0.35 0.0 0 1 1231.56 600.00
  L 1206.17 600.00
  A 0.35 0.35 0.0 0 0 1205.83 600.29
  L 1203.21 614.84
  A 0.35 0.35 0.0 0 0 1203.56 615.25
  L 1230.88 615.25
  A 0.35 0.35 0.0 0 1 1231.23 615.66
  L 1228.97 628.71
  A 0.35 0.35 0.0 0 1 1228.63 629.00
  L 1185.76 629.00
  A 0.35 0.35 0.0 0 1 1185.41 628.59
  L 1197.42 560.29
  A 0.35 0.35 0.0 0 1 1197.76 560.00
  L 1240.65 560.00
  A 0.35 0.35 0.0 0 1 1241.00 560.41
  L 1238.73 573.21
  A 0.35 0.35 0.0 0 1 1238.39 573.50
  L 1210.83 573.50
  A 0.35 0.35 0.0 0 0 1210.49 573.79
  L 1208.37 586.09
  A 0.35 0.35 0.0 0 0 1208.72 586.50
  Z"
/>
<path fill="#636a6e" d="
  M 1314.61 615.49
  L 1291.96 615.50
  A 0.41 0.41 0.0 0 0 1291.59 615.74
  L 1285.63 628.75
  A 0.41 0.41 0.0 0 1 1285.26 628.99
  L 1269.38 629.01
  A 0.41 0.41 0.0 0 1 1269.01 628.42
  L 1301.78 560.23
  A 0.41 0.41 0.0 0 1 1302.15 560.00
  L 1322.61 560.00
  A 0.41 0.41 0.0 0 1 1323.02 560.35
  L 1332.75 628.53
  A 0.41 0.41 0.0 0 1 1332.35 629.00
  L 1316.77 629.00
  A 0.41 0.41 0.0 0 1 1316.36 628.63
  L 1315.02 615.86
  A 0.41 0.41 0.0 0 0 1314.61 615.49
  Z
  M 1297.67 602.06
  A 0.31 0.31 0.0 0 0 1297.95 602.50
  L 1313.14 602.50
  A 0.31 0.31 0.0 0 0 1313.45 602.16
  L 1310.80 574.34
  A 0.31 0.31 0.0 0 0 1310.21 574.25
  L 1297.67 602.06
  Z"
/>
<path fill="#009640" d="
  M 1838.23 574.50
  L 1588.71 574.50
  A 0.47 0.47 0.0 0 1 1588.24 574.03
  L 1588.25 560.97
  A 0.47 0.47 0.0 0 1 1588.72 560.50
  L 1844.47 560.50
  A 0.47 0.47 0.0 0 1 1844.90 561.17
  L 1838.66 574.23
  A 0.47 0.47 0.0 0 1 1838.23 574.50
  Z"
/>
<path fill="#636a6e" d="
  M 1948.73 596.00
  Q 1948.76 595.46 1948.89 594.96
  Q 1952.87 579.06 1957.71 561.07
  Q 1957.86 560.50 1958.45 560.50
  L 1973.70 560.50
  Q 1974.30 560.50 1974.15 561.09
  L 1956.74 627.85
  Q 1956.57 628.50 1955.90 628.50
  L 1940.54 628.49
  A 0.39 0.38 -4.4 0 1 1940.16 628.17
  L 1934.19 593.01
  Q 1934.01 591.98 1933.74 592.99
  L 1924.58 627.93
  A 0.76 0.75 -82.5 0 1 1923.85 628.50
  L 1908.48 628.50
  A 0.41 0.41 0.0 0 1 1908.08 627.98
  L 1925.54 560.95
  Q 1925.60 560.75 1925.80 560.75
  L 1941.53 560.75
  A 0.61 0.60 84.8 0 1 1942.12 561.25
  Q 1944.97 578.04 1947.82 594.77
  Q 1947.94 595.49 1948.35 596.10
  Q 1948.69 596.62 1948.73 596.00
  Z"
/>
<path fill="#636a6e" d="
  M 1858.19 615.43
  L 1852.26 628.31
  A 0.31 0.31 0.0 0 1 1851.98 628.49
  L 1836.18 628.51
  A 0.31 0.31 0.0 0 1 1835.90 628.07
  L 1868.17 560.93
  A 0.31 0.31 0.0 0 1 1868.44 560.75
  L 1888.71 560.75
  A 0.31 0.31 0.0 0 1 1889.02 561.02
  L 1898.55 628.14
  A 0.31 0.31 0.0 0 1 1898.24 628.49
  L 1882.80 628.50
  A 0.31 0.31 0.0 0 1 1882.49 628.22
  L 1881.14 615.53
  A 0.31 0.31 0.0 0 0 1880.83 615.25
  L 1858.47 615.25
  A 0.31 0.31 0.0 0 0 1858.19 615.43
  Z
  M 1876.43 574.74
  L 1864.14 601.97
  A 0.38 0.38 0.0 0 0 1864.49 602.51
  L 1879.07 602.50
  Q 1879.65 602.50 1879.60 601.92
  L 1876.96 574.83
  Q 1876.86 573.80 1876.43 574.74
  Z"
/>
<path fill="#ffed00" d="
  M 1825.43 601.50
  L 1588.58 601.50
  A 0.33 0.33 0.0 0 1 1588.25 601.17
  L 1588.25 588.08
  A 0.33 0.33 0.0 0 1 1588.58 587.75
  L 1831.68 587.75
  A 0.33 0.33 0.0 0 1 1831.97 588.22
  L 1825.73 601.31
  A 0.33 0.33 0.0 0 1 1825.43 601.50
  Z"
/>
<path fill="#0e4194" d="
  M 1812.58 628.50
  L 1588.55 628.50
  A 0.30 0.30 0.0 0 1 1588.25 628.20
  L 1588.25 615.05
  A 0.30 0.30 0.0 0 1 1588.55 614.75
  L 1818.87 614.75
  A 0.30 0.30 0.0 0 1 1819.14 615.18
  L 1812.85 628.33
  A 0.30 0.30 0.0 0 1 1812.58 628.50
  Z"
/>
</svg>
